HIERARCHY
ROOT Hips
{
  OFFSET 0 0 0
  CHANNELS 6 Xposition Yposition Zposition Zrotation Yrotation Xrotation
  JOINT LeftThigh
  {
    OFFSET 8.409438 0 -5.917753
    CHANNELS 3 Zrotation Yrotation Xrotation
    JOINT LeftLeg
    {
      OFFSET 0 0 -42.358652
      CHANNELS 3 Zrotation Yrotation Xrotation
      JOINT LeftFoot
      {
        OFFSET 0 0 -39.357303
        CHANNELS 3 Zrotation Yrotation Xrotation
      }
    }
  }
  JOINT RightThigh
  {
    OFFSET -8.409438 0 -5.917753
    CHANNELS 3 Zrotation Yrotation Xrotation
    JOINT RightLeg
    {
      OFFSET 0 0 -42.358652
      CHANNELS 3 Zrotation Yrotation Xrotation
      JOINT RightFoot
      {
        OFFSET 0 0 -39.357303
        CHANNELS 3 Zrotation Yrotation Xrotation
      }
    }
  }
  JOINT SpineLow
  {
    OFFSET 0 0 4.719101
    CHANNELS 3 Zrotation Yrotation Xrotation
    JOINT SpineMid
    {
      OFFSET 0 0 12.899191
      CHANNELS 3 Zrotation Yrotation Xrotation
      JOINT Chest
      {
        OFFSET 0 0 12.899191
        CHANNELS 3 Zrotation Yrotation Xrotation
        JOINT LeftShoulder
        {
          OFFSET 7.550562 1.41573 9.438202
          CHANNELS 3 Zrotation Yrotation Xrotation
          JOINT LeftArm
          {
            OFFSET 9.155056 0 4.247191
            CHANNELS 3 Zrotation Yrotation Xrotation
            JOINT LeftForearm
            {
              OFFSET 0 0 25.771955
              CHANNELS 3 Zrotation Yrotation Xrotation
              JOINT LeftHand
              {
                OFFSET 0 0 25.197169
                CHANNELS 3 Zrotation Yrotation Xrotation
              }
            }
          }
        }
        JOINT RightShoulder
        {
          OFFSET -7.550562 1.41573 9.438202
          CHANNELS 3 Zrotation Yrotation Xrotation
          JOINT RightArm
          {
            OFFSET -9.155056 0 4.247191
            CHANNELS 3 Zrotation Yrotation Xrotation
            JOINT RightForearm
            {
              OFFSET 0 0 -25.771955
              CHANNELS 3 Zrotation Yrotation Xrotation
              JOINT RightHand
              {
                OFFSET 0 0 -25.197169
                CHANNELS 3 Zrotation Yrotation Xrotation
              }
            }
          }
        }
        JOINT Neck
        {
          OFFSET 0 0 15.101124
          CHANNELS 3 Zrotation Yrotation Xrotation
          JOINT Head
          {
            OFFSET 0 0 11.325843
            CHANNELS 3 Zrotation Yrotation Xrotation
            End Site
            {
              OFFSET 0 0 14.157303
            }
          }
        }
      }
    }
  }
}
MOTION
Frames: 14
Frame Time: 0.0
0.0  93.25843  0.0  -3.853502  11.542246  -92.719619  1.655123  -19.604603  -3.931743  -9.207771  0.651667  11.409458  8.146051  1.31027  3.258533  -15.330024  0.498369  -4.599764  -12.024174  9.089191  12.182997  6.36189  2.365123  0.631865  0.330316  0.129262  -0.596982  0.899639  0.361445  -1.630006  0.899639  0.361445  -1.630006  -24.554815  20.043581  19.219181  -155.124349  29.830255  -93.587809  -29.203822  28.146236  85.043909  63.949014  -3.013216  5.706476  3.232893  -20.72505  25.419077  107.763844  58.185989  44.462136  -15.35178  -25.994366  -113.672207  58.016408  -3.946158  -6.991388  -11.186202  -2.620183  6.938114  -8.359721  -2.093278  5.156743  
0.0  93.25843  0.0  -3.977018  11.189783  -92.709322  2.717211  -19.719206  -4.619419  -10.006083  1.219977  12.473002  8.266682  1.328311  3.243306  -14.733205  0.097331  -5.096095  -12.235099  9.819485  13.104936  6.403062  2.424468  0.655711  0.344859  0.076097  -0.612865  0.940642  0.21672  -1.674085  0.940642  0.21672  -1.674085  -24.209097  20.526479  19.318804  -154.922644  29.327373  -93.93563  -27.242316  26.873567  86.655515  65.105641  -2.401761  4.894447  2.95133  -20.338667  25.471734  106.914901  57.516189  43.530731  -14.053198  -26.674523  -114.694964  58.880507  -4.089938  -6.950987  -11.144366  -2.539187  6.931985  -8.329377  -2.031906  5.153845  
0.0  93.25843  0.0  -3.740214  11.171528  -92.476967  3.600667  -19.415075  -5.396577  -10.68793  1.707223  13.605653  8.350115  1.327994  3.198933  -14.518704  0.030901  -5.919379  -12.391591  10.746665  14.145403  6.625296  2.37183  0.681827  0.279005  0.083029  -0.637276  0.760387  0.23428  -1.740952  0.760388  0.234281  -1.740952  -23.819737  20.910827  19.355181  -154.663894  28.747129  -94.322255  -25.321729  24.637766  88.280647  65.637037  -1.446614  4.306214  2.835518  -20.016706  25.445835  106.197963  56.912196  42.722721  -12.328117  -27.452564  -115.790247  59.863387  -4.061218  -6.768669  -10.99656  -2.440489  6.884078  -8.219921  -1.955279  5.120312  
0.0  93.25843  0.0  -3.812129  10.112936  -92.424166  5.48031  -19.407395  -5.919718  -11.616935  2.083001  14.433566  8.439344  1.383172  3.186501  -13.586949  -0.389102  -6.716532  -12.584132  11.671656  15.306072  6.809436  2.505545  0.671969  0.340143  0.021082  -0.633395  0.929122  0.066527  -1.730986  0.929122  0.066527  -1.730986  -23.2711  21.296976  19.325799  -154.445095  28.13755  -94.746422  -23.077254  22.725469  90.164311  66.705224  -0.24059  3.465669  2.678094  -19.666551  25.320965  105.627381  56.362268  42.091219  -10.522884  -28.097889  -117.049454  60.4036  -4.221358  -6.696848  -10.783169  -2.331911  6.777945  -8.061577  -1.869489  5.043458  
0.0  93.25843  0.0  -3.852825  8.472978  -92.402688  7.654154  -19.294978  -6.164483  -12.391307  2.253115  15.132944  8.494871  1.432564  3.16833  -12.366951  -0.775379  -7.586159  -12.468406  12.644754  16.566452  6.926132  2.528252  0.660822  0.465552  -0.034967  -0.604425  1.273322  -0.083934  -1.652738  1.273322  -0.083934  -1.652738  -23.102914  21.389904  19.020207  -153.871554  27.263938  -95.326141  -21.07196  20.899534  92.029144  68.004738  1.383414  2.830431  4.099065  -19.906633  25.786971  103.855046  57.069544  41.895151  -8.748852  -28.351016  -118.177964  60.371297  -4.334471  -6.809284  -10.439352  -2.237494  6.611471  -7.8054  -1.791925  4.921442  
0.0  93.25843  0.0  -3.848437  6.327331  -92.373559  9.873761  -19.031642  -6.080664  -12.924528  2.124842  15.644832  8.347292  1.542804  3.094308  -10.966983  -1.159241  -8.522367  -12.088003  13.465585  17.901229  7.035983  2.725573  0.67685  0.65102  -0.09084  -0.569215  1.781529  -0.232945  -1.558215  1.781529  -0.232945  -1.558215  -22.611227  21.59971  18.674962  -153.359307  26.628221  -95.823466  -19.090871  19.286834  93.79848  69.688967  3.230539  2.341327  3.80291  -19.595745  25.609786  103.481897  56.67289  41.494069  -6.90363  -28.294309  -119.340921  60.022742  -4.433412  -7.013191  -10.108442  -2.202798  6.373045  -7.558404  -1.758308  4.744287  
0.0  93.25843  0.0  -3.761057  3.796987  -92.309696  11.727366  -18.58518  -5.696771  -14.556088  2.081334  14.894036  9.359047  1.692672  3.891028  -9.466989  -1.541595  -9.533163  -11.514337  14.234933  19.248007  7.781572  3.13745  0.808955  0.804964  -0.0911  -0.538383  2.202198  -0.23105  -1.474466  2.202198  -0.23105  -1.474466  -21.614635  21.455079  18.407099  -152.705677  26.084141  -96.253049  -17.142758  17.706487  95.60031  71.727311  5.29729  1.949454  3.957386  -19.688595  25.575875  103.054924  56.457833  41.237907  -5.295241  -27.464072  -120.21955  59.071654  -4.316754  -7.343494  -9.469713  -2.338709  6.152772  -7.078603  -1.850114  4.578988  
0.0  93.25843  0.0  -3.556409  0.86635  -92.166458  13.108027  -18.213672  -5.065946  -14.400951  1.940098  15.201848  9.2177  1.976818  3.683832  -7.992994  -1.828268  -10.732232  -10.737145  14.922472  20.629019  7.882156  3.347935  0.806375  1.019889  -0.1413  -0.494145  2.790543  -0.365297  -1.356391  2.790543  -0.365297  -1.356391  -20.802725  21.689812  17.86579  -151.769579  25.695909  -96.520544  -14.939904  17.226053  97.709782  75.205906  7.736088  1.734954  3.865036  -19.32638  25.502035  102.709534  56.247013  41.046448  -5.152089  -25.480201  -119.761895  57.056368  -4.013468  -8.681389  -8.818126  -2.2552  5.800222  -6.592039  -1.775715  4.318118  
0.0  93.25843  0.0  -3.179314  -2.523541  -91.929111  13.811001  -17.777916  -4.273447  -13.653513  2.040763  15.45191  9.510498  2.231142  3.559335  -6.666323  -1.902228  -12.153514  -9.752928  15.490037  21.988455  8.231279  3.581521  0.816244  1.253458  -0.161068  -0.448255  3.429094  -0.416882  -1.233245  3.429093  -0.416882  -1.233244  -19.804609  21.826669  17.206796  -150.319852  25.46365  -96.609449  -14.248044  18.453068  98.140288  80.475538  9.501156  4.155955  3.944058  -18.981529  25.406898  102.4933  56.001354  40.999865  -4.740957  -23.943308  -120.053406  56.261208  -4.144191  -9.480958  -8.000224  -2.176678  5.404379  -5.980749  -1.703755  4.02511  
0.0  93.25843  0.0  -2.681831  -6.38616  -91.730362  14.084364  -17.249271  -3.404446  -12.145515  2.250352  15.784051  10.324444  2.387816  3.657209  -5.492135  -1.859401  -13.61411  -8.501029  15.939362  23.251027  8.538153  3.740261  0.794931  1.519666  -0.151737  -0.385408  4.156197  -0.390347  -1.062539  4.156196  -0.390347  -1.062539  -18.621952  21.727767  16.475528  -148.696266  25.153081  -96.651384  -12.976507  19.397388  98.362278  85.671718  10.350721  6.785019  4.097749  -18.759791  25.242772  102.607358  55.6413  41.359818  -3.641031  -23.037928  -120.819884  56.635053  -4.043635  -9.816017  -6.991706  -2.120162  5.017754  -5.226188  -1.647909  3.739202  
0.0  93.25843  0.0  -2.154919  -10.523666  -91.622706  14.509367  -16.727037  -2.611627  -10.265046  2.443399  16.25685  11.159688  2.590456  3.809262  -4.595982  -1.802218  -15.07214  -6.97113  16.233446  24.482114  8.968899  3.900192  0.764499  1.836879  -0.120538  -0.34071  5.022542  -0.303386  -0.939838  5.022542  -0.303386  -0.939838  -17.529518  21.39997  15.808528  -147.010121  24.663067  -96.678188  -10.741114  19.57779  99.723091  90.322955  11.562224  9.049537  4.02558  -18.689007  25.222986  102.914699  55.193584  41.950723  -2.563921  -22.292312  -121.576368  57.212356  -3.985338  -10.10729  -6.032777  -2.079052  4.748482  -4.508251  -1.606459  3.54085  
0.0  93.25843  0.0  -1.612495  -14.910554  -91.556225  15.344168  -16.203529  -1.862623  -8.041891  2.431552  16.835827  11.569939  2.783078  3.916824  -3.860405  -1.802747  -16.528534  -5.247633  16.397367  25.587915  9.323555  3.990315  0.726366  2.174808  -0.090828  -0.312149  5.9457  -0.21998  -0.8606  5.9457  -0.21998  -0.8606  -16.460188  20.900138  15.066976  -145.012243  24.440918  -96.549321  -8.906912  18.643973  101.711278  93.721555  13.491017  11.636237  3.891529  -18.631231  25.238087  103.238162  54.5215  42.635387  -1.841098  -21.362918  -122.038076  57.601117  -4.002798  -10.509233  -4.965181  -2.033612  4.569803  -3.70853  -1.562558  3.410733  
0.0  93.25843  0.0  -0.996989  -19.542145  -91.518472  16.317392  -15.638445  -1.103038  -5.4871  2.331427  17.435347  11.589499  3.076507  3.976506  -2.979824  -1.795493  -18.062914  -3.613945  16.470456  26.581292  9.668119  4.048233  0.694885  2.507936  -0.037794  -0.315502  6.855553  -0.070484  -0.865243  6.855553  -0.070484  -0.865243  -15.266008  20.16354  14.43447  -142.716198  24.167198  -96.303029  -7.060486  16.558693  103.817153  95.95374  15.533915  14.447944  3.848895  -18.616617  25.44654  103.464958  53.657914  43.410851  -1.447049  -20.264575  -122.374562  57.823781  -4.09424  -10.816576  -3.718245  -2.025235  4.48869  -2.773691  -1.546399  3.353989  
0.0  93.25843  0.0  -0.324262  -24.467314  -91.542509  17.162731  -14.799445  -0.20573  -2.946451  2.087824  17.778523  11.840701  3.31958  4.055598  -1.813022  -1.825078  -19.623919  -2.16124  16.541431  27.436661  10.00391  4.076574  0.653603  2.880662  0.005239  -0.327827  7.873766  0.053303  -0.893997  7.873766  0.053303  -0.893997  -14.098023  19.549454  13.809987  -140.682808  24.932421  -96.443376  -6.072149  13.589311  106.523032  97.661247  17.524917  17.402026  3.622358  -18.354038  25.903345  103.670594  52.816106  44.244725  -1.274806  -19.150605  -122.678103  57.918227  -4.235353  -10.887542  -2.44421  -1.966009  4.43537  -1.818818  -1.492365  3.318399  
